<svg width="275" height="33" viewBox="0 0 275 33" fill="none" xmlns="http://www.w3.org/2000/svg">
<path d="M142.811 5.95578C142.928 5.39481 142.971 4.8567 142.95 4.37207H130.445C130.445 5.14361 131.103 5.90864 131.562 6.53206C132.438 7.71153 134.635 9.06057 137.393 11.4346C138.311 12.2253 139.184 13.0706 140.002 13.9658C142.557 16.7555 144.593 19.9879 145.941 23.5236C146.317 24.5092 146.461 25.5854 146.788 26.7445C147.097 27.8448 148.29 28.6278 149.437 28.6278V29.9028L146.34 33H128.41L125.313 29.9028V28.6278H127.43C127.455 28.0883 127.593 27.5605 127.997 26.3403C128.005 26.3121 128.865 23.9687 129.42 18.5394L131.891 21.0104C132.124 21.5767 132.647 23.3604 131.939 27.0428C131.823 27.6038 131.779 28.1432 131.801 28.6278H144.305C144.305 27.8562 143.647 27.09 143.188 26.4676C142.312 25.2883 140.115 23.9405 137.357 21.565C136.439 20.7759 135.568 19.9305 134.751 19.0379C133.473 17.6418 132.323 16.1346 131.326 14.5343C130.329 12.9355 129.482 11.2422 128.808 9.47237C128.432 8.48676 128.289 7.41196 127.963 6.25536C127.653 5.15505 126.46 4.37207 125.313 4.37207V3.09709L128.41 3.8147e-05H146.34L149.437 3.09709V4.37207H147.321C147.295 4.91018 147.157 5.43931 146.753 6.65959C146.746 6.68756 145.885 9.03119 145.33 14.4604L142.859 11.9893C142.626 11.4232 142.103 9.63808 142.811 5.95578Z" fill="white"/>
<path d="M157.505 12.8328L158.433 11.9427C158.784 12.1517 159.093 12.4484 159.36 12.8328L158.433 13.7229C158.165 13.3385 157.856 13.0418 157.505 12.8328Z" fill="white"/>
<path d="M156.483 19.9477C155.919 19.4168 155.637 18.7044 155.637 17.8101C155.637 17.0329 155.833 16.1803 156.226 15.2526L156.364 15.265C156.13 15.9421 156.013 16.5272 156.013 17.0203C156.013 17.7392 156.263 18.3076 156.765 18.7253C157.266 19.1431 158.019 19.3523 159.022 19.3523C159.607 19.3523 160.152 19.2645 160.658 19.0889C161.163 18.9134 161.571 18.6668 161.88 18.3493C162.189 18.0317 162.344 17.6681 162.344 17.2584C162.344 16.8743 162.187 16.4457 161.874 15.9734C161.56 15.5013 161.174 15.0313 160.714 14.563L161.278 13.4724H161.341C162.143 14.8515 162.544 16.076 162.544 17.1457C162.544 18.2238 162.246 19.093 161.648 19.7534C161.05 20.4135 160.142 20.7439 158.921 20.7439C157.86 20.7439 157.047 20.4785 156.483 19.9477Z" fill="white"/>
<path d="M164.513 20.1795C165.081 20.1795 165.61 20.0896 166.099 19.91C166.588 19.73 166.979 19.4627 167.271 19.1075C167.564 18.7522 167.71 18.324 167.71 17.8225C167.71 17.363 167.631 16.9199 167.472 16.4935C167.313 16.0673 167.073 15.7184 166.751 15.4467C166.429 15.1752 166.038 15.0393 165.579 15.0393C165.219 15.0393 164.908 15.148 164.645 15.3652C164.382 15.5826 164.25 15.85 164.25 16.1675C164.25 16.3932 164.396 16.5459 164.689 16.6253C164.981 16.7048 165.37 16.7443 165.855 16.7443C166.139 16.7443 166.381 16.7716 166.582 16.8258C166.782 16.8803 166.952 17.0159 167.089 17.2332C167.227 17.4508 167.288 17.7808 167.271 18.2237C167.154 18.1152 167.006 18.0462 166.826 18.0169C166.646 17.9877 166.377 17.9729 166.018 17.9729H165.654C165.127 17.9564 164.728 17.8142 164.457 17.5467C164.185 17.2793 164.049 16.8823 164.049 16.3558C164.049 15.8961 164.131 15.4739 164.294 15.0894C164.457 14.705 164.68 14.3998 164.964 14.1741C165.249 13.9486 165.562 13.8357 165.905 13.8357C166.264 13.8357 166.598 13.9861 166.908 14.2871C167.217 14.5879 167.463 15.0079 167.647 15.5471C167.831 16.0861 167.923 16.7027 167.923 17.3963C167.923 18.2237 167.804 18.9383 167.566 19.5401C167.328 20.1418 167.006 20.5996 166.6 20.9129C166.195 21.2263 165.746 21.3831 165.253 21.3831C164.852 21.3831 164.448 21.2765 164.043 21.0634C163.637 20.8502 163.251 20.5346 162.883 20.1169L162.958 19.9538C163.46 20.1042 163.978 20.1795 164.513 20.1795Z" fill="white"/>
<path d="M167.886 20.1419L167.911 20.0917C168.37 20.2589 168.847 20.3424 169.34 20.3424C169.883 20.3424 170.399 20.2485 170.888 20.0604C171.377 19.8724 171.77 19.6048 172.067 19.2579C172.364 18.911 172.512 18.5038 172.512 18.0357C172.512 17.718 172.366 17.388 172.073 17.0452C171.781 16.7025 171.388 16.3182 170.895 15.8918L171.459 14.8136H171.509C171.91 15.357 172.211 15.9044 172.412 16.4559C172.612 17.0075 172.713 17.5342 172.713 18.0357C172.713 18.6792 172.606 19.2558 172.393 19.7658C172.18 20.2754 171.885 20.6703 171.509 20.9505C171.133 21.2304 170.715 21.3706 170.255 21.3706C169.461 21.3706 168.671 20.9609 167.886 20.1419Z" fill="white"/>
<path d="M174.919 18.0169C174.484 17.6366 174.267 16.9409 174.267 15.9294V9.87411L174.969 8.83344H175.019V15.591C175.019 16.1595 175.153 16.5669 175.421 16.8134C175.688 17.06 176.11 17.1833 176.687 17.1833V18.5874C175.943 18.5874 175.354 18.3974 174.919 18.0169Z" fill="white"/>
<path d="M182.33 13.209L183.258 12.3189C183.609 12.5279 183.918 12.8247 184.186 13.209L183.258 14.0991C182.99 13.7148 182.681 13.418 182.33 13.209ZM181.365 11.7673L182.292 10.8772C182.644 11.0862 182.953 11.3829 183.22 11.7673L182.292 12.6574C182.025 12.273 181.716 11.9763 181.365 11.7673ZM180.475 13.209L181.402 12.3189C181.753 12.5279 182.063 12.8247 182.33 13.209L181.402 14.0991C181.135 13.7148 180.826 13.418 180.475 13.209Z" fill="white"/>
<path d="M178.143 17.0014C178.611 16.8804 178.882 16.7111 178.958 16.4937L179.359 15.2902L179.484 15.3026L179.233 16.5688C179.191 16.803 179.325 16.9722 179.634 17.0767C179.944 17.1812 180.316 17.2292 180.75 17.2208C181.16 17.2208 181.473 17.1268 181.691 16.9388C181.908 16.7507 182.058 16.525 182.142 16.2617C182.225 15.9984 182.313 15.6034 182.405 15.077H182.543C182.493 15.637 182.414 16.1426 182.305 16.594C182.481 16.803 182.731 16.9637 183.057 17.0767C183.383 17.1894 183.713 17.2459 184.048 17.2459C184.365 17.2459 184.628 17.1958 184.837 17.0955C185.046 16.9951 185.151 16.8531 185.151 16.6691C185.151 16.5439 185.084 16.3933 184.95 16.2179C184.816 16.0423 184.603 15.7959 184.311 15.4782L184.123 15.2902L184.562 14.3248H184.599C184.808 14.6592 184.973 15.031 185.095 15.4406C185.216 15.8501 185.276 16.2429 185.276 16.619C185.469 16.9951 185.941 17.1833 186.693 17.1833V18.5874C186.275 18.5874 185.92 18.5058 185.627 18.3429C185.335 18.1798 185.142 17.9397 185.051 17.622C184.917 17.8896 184.731 18.1047 184.493 18.2676C184.254 18.4307 183.989 18.5121 183.697 18.5121C183.412 18.5121 183.126 18.4328 182.838 18.2739C182.549 18.1152 182.326 17.8978 182.167 17.622C182.05 17.9397 181.866 18.1779 181.615 18.3365C181.365 18.4954 181.06 18.5791 180.7 18.5874C180.165 18.6206 179.754 18.5184 179.465 18.2802C179.177 18.0419 179.012 17.689 178.97 17.2208C178.853 17.647 178.623 17.9814 178.281 18.2238C177.938 18.4664 177.39 18.5874 176.638 18.5874C176.513 18.5874 176.45 18.3576 176.45 17.8978C176.45 17.4215 176.513 17.1833 176.638 17.1833C177.173 17.1833 177.675 17.1226 178.143 17.0014Z" fill="white"/>
<path d="M188.373 11.7547L189.301 10.8646C189.652 11.0736 189.961 11.3703 190.229 11.7547L189.301 12.6448C189.033 12.2604 188.724 11.9637 188.373 11.7547ZM186.518 11.7547L187.445 10.8646C187.796 11.0736 188.106 11.3703 188.373 11.7547L187.445 12.6448C187.178 12.2604 186.869 11.9637 186.518 11.7547Z" fill="white"/>
<path d="M188.874 13.4597H188.912C188.929 13.5517 188.945 13.6477 188.962 13.748C189.071 14.45 189.19 15.0289 189.319 15.4844C189.449 15.94 189.681 16.337 190.015 16.6754C190.349 17.0139 190.813 17.1831 191.407 17.1831V18.5874C190.354 18.5874 189.568 18.0943 189.05 17.108C188.933 17.5175 188.676 17.8665 188.279 18.1548C187.882 18.4432 187.353 18.5874 186.693 18.5874C186.568 18.5874 186.505 18.3575 186.505 17.8978C186.505 17.4213 186.568 17.1831 186.693 17.1831C187.144 17.1831 187.577 17.1435 187.99 17.064C188.404 16.9847 188.699 16.8698 188.874 16.7193C188.674 16.2346 188.481 15.5241 188.298 14.5879L188.874 13.4597Z" fill="white"/>
<path d="M192.886 17.0014C193.354 16.8804 193.626 16.7111 193.701 16.4937L194.102 15.2902L194.228 15.3026L193.977 16.5688C193.935 16.803 194.069 16.9722 194.378 17.0767C194.687 17.1812 195.059 17.2292 195.494 17.2208C195.903 17.2208 196.217 17.1268 196.434 16.9388C196.652 16.7507 196.802 16.525 196.886 16.2617C196.969 15.9984 197.057 15.6034 197.149 15.077H197.287C197.237 15.637 197.157 16.1426 197.049 16.594C197.224 16.803 197.475 16.9637 197.801 17.0767C198.127 17.1894 198.457 17.2459 198.791 17.2459C199.109 17.2459 199.372 17.1958 199.581 17.0955C199.79 16.9951 199.894 16.8531 199.894 16.6691C199.894 16.5439 199.827 16.3933 199.694 16.2179C199.56 16.0423 199.347 15.7959 199.055 15.4782L198.866 15.2902L199.305 14.3248H199.343C199.552 14.6592 199.717 15.031 199.838 15.4406C199.959 15.8501 200.02 16.2429 200.02 16.619C200.212 16.9951 200.684 17.1833 201.437 17.1833V18.5874C201.019 18.5874 200.663 18.5058 200.371 18.3429C200.078 18.1798 199.886 17.9397 199.794 17.622C199.66 17.8896 199.475 18.1047 199.236 18.2676C198.998 18.4307 198.733 18.5121 198.44 18.5121C198.156 18.5121 197.87 18.4328 197.581 18.2739C197.293 18.1152 197.069 17.8978 196.911 17.622C196.794 17.9397 196.61 18.1779 196.359 18.3365C196.108 18.4954 195.803 18.5791 195.444 18.5874C194.909 18.6206 194.497 18.5184 194.209 18.2802C193.921 18.0419 193.755 17.689 193.714 17.2208C193.597 17.647 193.367 17.9814 193.024 18.2238C192.681 18.4664 192.134 18.5874 191.382 18.5874C191.256 18.5874 191.194 18.3576 191.194 17.8978C191.194 17.4215 191.256 17.1833 191.382 17.1833C191.917 17.1833 192.418 17.1226 192.886 17.0014Z" fill="white"/>
<path d="M206.615 16.0611C206.406 15.6306 206.117 15.3654 205.75 15.2649C205.641 15.2317 205.516 15.2148 205.374 15.2148C205.056 15.2148 204.742 15.307 204.433 15.4906C204.124 15.6746 203.873 15.9128 203.681 16.2053C203.773 16.3225 204.001 16.4729 204.364 16.6565C204.728 16.8405 205.144 17.0161 205.612 17.1832C206.08 17.3505 206.506 17.4715 206.891 17.5468C206.916 16.9869 206.824 16.4917 206.615 16.0611ZM204.991 18.2613C204.444 18.0357 204.036 17.8226 203.769 17.6219C203.702 17.5718 203.656 17.4924 203.631 17.3837C203.606 17.2752 203.593 17.1288 203.593 16.945C203.418 17.4131 203.154 17.8038 202.803 18.1171C202.452 18.4306 201.993 18.5873 201.424 18.5873C201.299 18.5873 201.236 18.3576 201.236 17.8977C201.236 17.4214 201.299 17.1832 201.424 17.1832C202.344 17.1832 203.05 16.8156 203.543 16.0799C204.404 14.7008 205.227 14.0613 206.013 14.1618C206.381 14.2119 206.682 14.4607 206.916 14.9076C207.15 15.355 207.267 15.8876 207.267 16.5061C207.267 16.8907 207.217 17.2835 207.116 17.6847C207.058 17.8685 206.984 18.0775 206.897 18.3115C206.809 18.5456 206.744 18.7043 206.703 18.7878C206.109 18.6626 205.539 18.487 204.991 18.2613Z" fill="white"/>
<path d="M210.175 20.1795C210.744 20.1795 211.272 20.0896 211.761 19.91C212.25 19.73 212.641 19.4627 212.933 19.1075C213.226 18.7522 213.372 18.324 213.372 17.8225C213.372 17.363 213.293 16.9199 213.134 16.4935C212.975 16.0673 212.735 15.7184 212.413 15.4467C212.091 15.1752 211.701 15.0393 211.241 15.0393C210.881 15.0393 210.57 15.148 210.307 15.3652C210.044 15.5826 209.912 15.85 209.912 16.1675C209.912 16.3932 210.058 16.5459 210.351 16.6253C210.643 16.7048 211.032 16.7443 211.517 16.7443C211.801 16.7443 212.043 16.7716 212.244 16.8258C212.444 16.8803 212.614 17.0159 212.752 17.2332C212.889 17.4508 212.95 17.7808 212.933 18.2237C212.816 18.1152 212.668 18.0462 212.488 18.0169C212.308 17.9877 212.039 17.9729 211.68 17.9729H211.316C210.79 17.9564 210.39 17.8142 210.119 17.5467C209.847 17.2793 209.711 16.8823 209.711 16.3558C209.711 15.8961 209.793 15.4739 209.956 15.0894C210.119 14.705 210.342 14.3998 210.627 14.1741C210.911 13.9486 211.224 13.8357 211.567 13.8357C211.926 13.8357 212.26 13.9861 212.57 14.2871C212.879 14.5879 213.126 15.0079 213.31 15.5471C213.493 16.0861 213.585 16.7027 213.585 17.3963C213.585 18.2237 213.466 18.9383 213.228 19.5401C212.99 20.1418 212.668 20.5996 212.263 20.9129C211.857 21.2263 211.408 21.3831 210.915 21.3831C210.514 21.3831 210.11 21.2765 209.705 21.0634C209.3 20.8502 208.913 20.5346 208.545 20.1169L208.621 19.9538C209.122 20.1042 209.64 20.1795 210.175 20.1795Z" fill="white"/>
<path d="M217.722 12.8328L218.65 11.9427C219.001 12.1517 219.31 12.4484 219.578 12.8328L218.65 13.7229C218.382 13.3385 218.073 13.0418 217.722 12.8328Z" fill="white"/>
<path d="M216.7 19.9477C216.136 19.4168 215.854 18.7044 215.854 17.8101C215.854 17.0329 216.05 16.1803 216.443 15.2526L216.581 15.265C216.347 15.9421 216.23 16.5272 216.23 17.0203C216.23 17.7392 216.481 18.3076 216.982 18.7253C217.484 19.1431 218.236 19.3523 219.239 19.3523C219.824 19.3523 220.369 19.2645 220.875 19.0889C221.381 18.9134 221.788 18.6668 222.098 18.3493C222.407 18.0317 222.561 17.6681 222.561 17.2584C222.561 16.8743 222.405 16.4457 222.091 15.9734C221.778 15.5013 221.391 15.0313 220.932 14.563L221.496 13.4724H221.558C222.361 14.8515 222.762 16.076 222.762 17.1457C222.762 18.2238 222.463 19.093 221.866 19.7534C221.268 20.4135 220.359 20.7439 219.139 20.7439C218.077 20.7439 217.264 20.4785 216.7 19.9477Z" fill="white"/>
<path d="M228.642 18.437C228.433 18.3367 228.266 18.2113 228.141 18.0609C228.082 18.7545 227.928 19.3523 227.677 19.8538C227.426 20.3551 227.111 20.7354 226.73 20.9945C226.35 21.2535 225.938 21.3833 225.495 21.3833C225.094 21.3833 224.691 21.2767 224.286 21.0635C223.88 20.8505 223.494 20.5349 223.126 20.1169L223.201 19.954C223.703 20.1044 224.221 20.1797 224.756 20.1797C225.324 20.1797 225.853 20.0897 226.342 19.9101C226.831 19.7303 227.221 19.4629 227.514 19.1077C227.806 18.7524 227.953 18.3242 227.953 17.8227C227.953 17.3631 227.873 16.92 227.715 16.4937C227.556 16.0675 227.315 15.7187 226.994 15.4469C226.672 15.1755 226.281 15.0395 225.821 15.0395C225.462 15.0395 225.151 15.1482 224.887 15.3655C224.624 15.5829 224.492 15.8503 224.492 16.1678C224.492 16.3935 224.639 16.546 224.931 16.6253C225.224 16.7048 225.612 16.7444 226.097 16.7444C226.381 16.7444 226.624 16.7717 226.824 16.826C227.025 16.8804 227.194 17.0162 227.332 17.2334C227.47 17.4509 227.531 17.781 227.514 18.2238C227.397 18.1153 227.249 18.0463 227.069 18.0169C226.889 17.9877 226.62 17.9731 226.26 17.9731H225.897C225.37 17.9564 224.971 17.8145 224.699 17.5469C224.428 17.2795 224.292 16.8823 224.292 16.3558C224.292 15.8964 224.373 15.4742 224.536 15.0896C224.699 14.7053 224.923 14.4001 225.207 14.1744C225.491 13.9487 225.805 13.8359 226.147 13.8359C226.482 13.8359 226.795 13.9675 227.088 14.2308C227.38 14.494 227.623 14.8639 227.815 15.3403C228.007 15.8167 228.12 16.3643 228.153 16.9828C228.421 17.1165 228.751 17.1833 229.144 17.1833H229.244V18.5874C229.052 18.5874 228.851 18.5373 228.642 18.437Z" fill="white"/>
<path d="M234.4 16.0611C234.191 15.6306 233.902 15.3654 233.535 15.2649C233.426 15.2317 233.301 15.2148 233.159 15.2148C232.841 15.2148 232.528 15.307 232.218 15.4906C231.909 15.6746 231.658 15.9128 231.466 16.2053C231.558 16.3225 231.786 16.4729 232.149 16.6565C232.513 16.8405 232.929 17.0161 233.397 17.1832C233.865 17.3505 234.291 17.4715 234.676 17.5468C234.701 16.9869 234.609 16.4917 234.4 16.0611ZM232.776 18.2613C232.229 18.0357 231.821 17.8226 231.554 17.6219C231.487 17.5718 231.441 17.4924 231.416 17.3837C231.391 17.2752 231.378 17.1288 231.378 16.945C231.203 17.4131 230.94 17.8038 230.589 18.1171C230.238 18.4306 229.778 18.5873 229.21 18.5873C229.084 18.5873 229.021 18.3576 229.021 17.8977C229.021 17.4214 229.084 17.1832 229.21 17.1832C230.129 17.1832 230.835 16.8156 231.328 16.0799C232.189 14.7008 233.012 14.0613 233.798 14.1618C234.166 14.2119 234.467 14.4607 234.701 14.9076C234.935 15.355 235.052 15.8876 235.052 16.5061C235.052 16.8907 235.002 17.2835 234.901 17.6847C234.843 17.8685 234.77 18.0775 234.682 18.3115C234.594 18.5456 234.529 18.7043 234.488 18.7878C233.894 18.6626 233.324 18.487 232.776 18.2613Z" fill="white"/>
<path d="M237.145 18.0169C236.71 17.6366 236.493 16.9409 236.493 15.9294V9.87411L237.195 8.83344H237.245V15.591C237.245 16.1595 237.379 16.5669 237.647 16.8134C237.914 17.06 238.336 17.1833 238.913 17.1833V18.5874C238.169 18.5874 237.58 18.3974 237.145 18.0169Z" fill="white"/>
<path d="M245.385 16.0675C245.435 16.4605 245.655 16.7446 246.043 16.92C246.432 17.0955 247.028 17.1833 247.83 17.1833V18.5874C246.818 18.5874 246.095 18.3869 245.661 17.9856C245.226 17.5845 245.042 16.9536 245.109 16.0927C244.892 16.1595 244.689 16.2577 244.501 16.3871C244.313 16.517 244.069 16.7069 243.768 16.9576C243.367 17.292 242.999 17.5699 242.665 17.7914C242.33 18.0129 241.908 18.2009 241.398 18.3556C240.888 18.5104 240.291 18.5874 239.606 18.5874H238.878C238.753 18.5874 238.69 18.3577 238.69 17.8978C238.69 17.4215 238.753 17.1833 238.878 17.1833H240.132C240.817 17.1833 241.405 17.1416 241.894 17.0579C242.383 16.9745 242.775 16.8762 243.072 16.7634C243.369 16.6505 243.684 16.5062 244.019 16.3308C244.353 16.1553 244.608 16.0424 244.783 15.9922C244.499 15.9338 244.217 15.8482 243.937 15.7352C243.657 15.6225 243.291 15.4617 242.84 15.2525C242.347 15.027 241.948 14.8576 241.643 14.7449C241.338 14.6321 241.056 14.5756 240.797 14.5756C240.521 14.5756 240.289 14.6551 240.101 14.8138C239.913 14.9727 239.748 15.24 239.606 15.6161L239.493 15.5911C239.543 15.0564 239.704 14.5798 239.975 14.1619C240.247 13.7441 240.646 13.535 241.173 13.535C241.24 13.535 241.34 13.5434 241.474 13.5601C241.808 13.6102 242.136 13.7044 242.458 13.8421C242.779 13.98 243.174 14.1703 243.643 14.4126C244.303 14.7554 244.871 15.0103 245.348 15.1774C245.824 15.3447 246.334 15.4073 246.877 15.3655L246.915 15.4909C246.488 15.8754 245.979 16.0675 245.385 16.0675Z" fill="white"/>
<path d="M253.008 16.0611C252.799 15.6306 252.51 15.3654 252.143 15.2649C252.034 15.2317 251.909 15.2148 251.767 15.2148C251.449 15.2148 251.135 15.307 250.826 15.4906C250.517 15.6746 250.266 15.9128 250.074 16.2053C250.166 16.3225 250.394 16.4729 250.757 16.6565C251.121 16.8405 251.537 17.0161 252.005 17.1832C252.473 17.3505 252.899 17.4715 253.284 17.5468C253.309 16.9869 253.217 16.4917 253.008 16.0611ZM251.384 18.2613C250.837 18.0357 250.429 17.8226 250.162 17.6219C250.095 17.5718 250.049 17.4924 250.024 17.3837C249.999 17.2752 249.986 17.1288 249.986 16.945C249.811 17.4131 249.548 17.8038 249.197 18.1171C248.845 18.4306 248.386 18.5873 247.817 18.5873C247.692 18.5873 247.629 18.3576 247.629 17.8977C247.629 17.4214 247.692 17.1832 247.817 17.1832C248.737 17.1832 249.443 16.8156 249.936 16.0799C250.797 14.7008 251.62 14.0613 252.406 14.1618C252.774 14.2119 253.075 14.4607 253.309 14.9076C253.543 15.355 253.66 15.8876 253.66 16.5061C253.66 16.8907 253.61 17.2835 253.509 17.6847C253.451 17.8685 253.378 18.0775 253.29 18.3115C253.202 18.5456 253.137 18.7043 253.096 18.7878C252.502 18.6626 251.932 18.487 251.384 18.2613Z" fill="white"/>
<path d="M256.343 23.7528C256.343 23.3934 256.315 22.99 256.261 22.5429C256.207 22.0957 256.129 21.5337 256.029 20.8566C255.87 19.7952 255.791 19.1016 255.791 18.7756C255.791 18.1571 255.946 17.6848 256.255 17.3588C256.564 17.0329 256.94 16.8281 257.383 16.7446C257.366 16.5607 257.358 16.4228 257.358 16.3308C257.358 15.7039 257.521 15.2131 257.847 14.8578C258.173 14.5026 258.629 14.2329 259.214 14.0491L261.558 13.3595L261.596 13.3845C261.362 14.3624 261.245 15.0856 261.245 15.5535C261.245 16.0719 261.374 16.4624 261.633 16.7257C261.892 16.9891 262.327 17.1207 262.937 17.1207V18.5248C262.336 18.5248 261.859 18.3284 261.508 17.9355C261.157 17.5428 260.981 16.9451 260.981 16.1428C260.981 15.6998 261.036 15.2193 261.144 14.701L258.95 15.3654C258.441 15.5327 258.064 15.677 257.822 15.798C257.579 15.9192 257.458 16.0634 257.458 16.2306C257.458 16.3057 257.548 16.3769 257.728 16.4436C257.908 16.5106 258.206 16.5942 258.624 16.6944C259.092 16.8197 259.485 16.9347 259.803 17.0392C260.12 17.1437 260.392 17.267 260.618 17.409L260.079 18.738C258.984 18.1612 258.077 17.8728 257.358 17.8728C256.848 17.8728 256.401 18.0108 256.017 18.2866C256.226 18.7796 256.432 19.4231 256.637 20.2174C256.842 21.0112 256.944 21.7259 256.944 22.3612C256.944 22.8709 256.869 23.2637 256.719 23.5396L256.368 24.1665H256.33C256.338 24.0828 256.343 23.9449 256.343 23.7528Z" fill="white"/>
<path d="M271.905 13.096L272.833 12.2059C273.184 12.4149 273.493 12.7116 273.76 13.096L272.833 13.9861C272.565 13.6017 272.256 13.305 271.905 13.096ZM270.939 11.6542L271.867 10.7641C272.218 10.9731 272.527 11.2699 272.795 11.6542L271.867 12.5443C271.6 12.16 271.291 11.8632 270.939 11.6542ZM270.049 13.096L270.977 12.2059C271.328 12.4149 271.637 12.7116 271.905 13.096L270.977 13.9861C270.71 13.6017 270.4 13.305 270.049 13.096Z" fill="white"/>
<path d="M264.865 20.3049C264.393 19.6862 264.111 18.9966 264.019 18.2362C263.701 18.4286 263.325 18.5247 262.89 18.5247C262.748 18.3074 262.677 18.0775 262.677 17.8351C262.677 17.6012 262.748 17.363 262.89 17.1204C263.4 17.1204 263.87 16.9744 264.301 16.6817C264.731 16.3892 265.03 15.8459 265.197 15.0519H265.247C265.205 15.7958 265.107 16.4247 264.953 16.9387C264.798 17.4527 264.545 17.8476 264.194 18.1234C264.412 18.8338 264.938 19.4313 265.774 19.9163C265.54 19.3896 265.423 18.8462 265.423 18.2863C265.423 17.6845 265.567 17.1392 265.855 16.6504C266.144 16.1613 266.56 15.7874 267.103 15.5283L268.933 14.7259H268.983C268.9 15.1522 268.858 15.5283 268.858 15.8542C268.858 16.2303 268.916 16.5125 269.034 16.7005C269.151 16.8886 269.303 17.0119 269.491 17.0703C269.679 17.1288 269.924 17.158 270.225 17.158C270.743 17.158 271.117 16.97 271.347 16.5939C271.576 16.2178 271.754 15.6911 271.88 15.0142H272.017L271.779 16.5313C271.955 16.7403 272.206 16.901 272.531 17.014C272.857 17.1267 273.187 17.1832 273.522 17.1832C273.839 17.1832 274.103 17.1331 274.312 17.0326C274.521 16.9324 274.625 16.7904 274.625 16.6064C274.625 16.481 274.558 16.3306 274.425 16.155C274.291 15.9796 274.078 15.7332 273.785 15.4153L273.597 15.2273L274.036 14.2621H274.073C274.282 14.5965 274.447 14.9703 274.569 15.384C274.69 15.7977 274.751 16.1927 274.751 16.5688C274.751 16.9199 274.682 17.2395 274.544 17.528C274.406 17.8163 274.216 18.042 273.973 18.2049C273.731 18.3679 273.463 18.4494 273.171 18.4494C272.87 18.4494 272.58 18.3764 272.299 18.23C272.019 18.0839 271.796 17.877 271.629 17.6094C271.378 18.2197 270.872 18.5247 270.112 18.5247C269.669 18.5247 269.299 18.3701 269.002 18.0608C268.705 17.7516 268.557 17.2792 268.557 16.644C268.557 16.452 268.57 16.2512 268.595 16.0423C267.834 16.3432 267.26 16.6002 266.871 16.8133C266.482 17.0265 266.177 17.2752 265.956 17.5593C265.734 17.8436 265.586 18.2112 265.511 18.6626C265.494 18.93 265.667 19.26 266.031 19.653C266.395 20.0458 266.802 20.3591 267.253 20.5932L266.902 21.709C266.016 21.3913 265.337 20.9234 264.865 20.3049Z" fill="white"/>
<path d="M1.35696 19.3099C1.6933 19.422 2.04529 19.4909 2.39975 19.483C2.88895 19.4723 3.37094 19.3449 3.794 19.0899C4.57152 18.6214 5.11173 17.6928 5.11173 16.6817C5.11173 15.1444 3.82197 14.5083 2.76669 14.1565C1.67641 13.7699 0.52755 13.4919 0.52755 12.3302C0.52755 11.815 0.743215 11.454 1.16381 11.2786C1.50314 11.1372 1.89084 11.1703 2.22472 11.3242L4.69729 12.4644V11.0651L3.28527 10.7388C2.6462 10.591 1.96719 10.6447 1.38247 10.942C0.562732 11.3587 0 12.1506 0 13.151C0 14.6406 1.30085 15.3374 2.42578 15.7698C3.39873 16.1105 4.52543 16.4106 4.52543 17.5721C4.52543 18.1194 4.28531 18.5314 3.85803 18.7453C3.50533 18.9219 3.0872 18.9111 2.72272 18.7599L0 17.3278V18.8577L1.35696 19.3099Z" fill="white"/>
<path d="M9.61213 13.6475C8.693 13.6475 8.00133 14.2217 7.66763 14.8183H7.64336V11.5967L6.46143 11.9025V19.4829H7.64336V14.9972C7.9417 14.6152 8.35931 14.3877 8.81227 14.3877C9.50394 14.3877 10.0297 14.865 10.0297 15.6293V19.4829H11.2099V15.3777C11.2099 14.2925 10.5909 13.6475 9.61213 13.6475Z" fill="white"/>
<path d="M21.5433 13.6475C20.6242 13.6475 19.9325 14.2217 19.5988 14.8183H19.5745V11.5967L18.3945 11.9025V19.4829H19.5745V14.9972C19.8729 14.6152 20.2905 14.3877 20.7434 14.3877C21.4351 14.3877 21.9609 14.865 21.9609 15.6293V19.4829H23.1428V15.3777C23.1428 14.2925 22.5221 13.6475 21.5433 13.6475Z" fill="white"/>
<path d="M32.6171 15.2583V19.4829H31.4351V15.5098C31.4351 14.7585 30.9224 14.2683 30.255 14.2683C29.8018 14.2683 29.4067 14.507 29.1214 14.9003C29.1327 15.0085 29.1457 15.1278 29.1457 15.2583V19.4829H27.9636V15.5098C27.9636 14.7585 27.438 14.2683 26.7706 14.2683C26.4796 14.2683 26.2205 14.3671 25.995 14.5406C25.8775 14.6282 25.7712 14.7381 25.6724 14.8648V19.4829H24.4922V13.8992L25.6724 13.5933V14.7158C25.7638 14.5497 25.8718 14.3969 25.995 14.2572C26.3864 13.819 26.9234 13.528 27.5702 13.528C28.3701 13.528 28.9182 13.9699 29.086 14.7344H29.1214C29.4308 14.1247 30.1468 13.528 31.0546 13.528C32.0074 13.528 32.6171 14.1731 32.6171 15.2583Z" fill="white"/>
<path d="M38.1288 13.159L38.4513 12.3947L40.0883 16.375H37.1052C37.3886 15.2134 37.741 14.0764 38.1288 13.159ZM42.6033 19.0764L42.428 18.6495L39.1206 10.6533H37.7839L37.7485 10.7019L38.3297 12.1232L35.8804 18.1835L35.3403 19.4829H36.5488L36.6019 19.0653L36.6542 18.698C36.7548 18.0287 36.8853 17.337 37.04 16.649H40.2076L40.7407 17.9485L41.0167 18.6234L41.3717 19.4829H42.7695L42.6033 19.0764Z" fill="white"/>
<path d="M119.114 13.6475L118.698 14.7138L118.696 14.7158L117.417 18.1741L117.932 19.4344L117.896 19.4829H116.56L114.85 15.3515L113.806 18.1759L114.321 19.4344L114.285 19.4829H112.949L110.534 13.6475H111.931L111.981 13.7611L113.672 17.8684L113.674 17.8609L113.922 17.2271C114.112 16.7479 114.282 16.237 114.41 15.7112C114.488 15.3907 114.552 15.0625 114.593 14.7307L114.145 13.6475H115.542L115.592 13.7611L117.281 17.8702L117.533 17.2271C117.721 16.7516 117.889 16.2483 118.018 15.7281C118.156 15.1651 118.247 14.5796 118.269 13.9905L118.273 13.8639L118.277 13.6475H119.114Z" fill="white"/>
<path d="M51.4922 17.2754C51.2535 18.4927 50.5861 19.4829 49.4414 19.4829C48.582 19.4829 48.0804 18.9328 48.0804 18.0976V13.9233H45.2522V17.8832C45.2522 18.4202 45.5262 18.767 46.0035 18.767C46.6598 18.767 47.1967 18.146 47.4484 17.2754H47.4839C47.2452 18.4927 46.5648 19.4829 45.42 19.4829C44.5737 19.4829 44.0722 18.9328 44.0722 18.0976V13.9233H43.248V13.6475H44.0722V12.2529L45.2168 11.5967H45.2522V13.6475H48.0804V12.2529L49.2383 11.5967H49.2624V13.6475H51.4213L51.4456 13.6716V13.9233H49.2624V17.8832C49.2624 18.4202 49.5364 18.767 50.0249 18.767C50.6812 18.767 51.2181 18.146 51.4679 17.2754H51.4922Z" fill="white"/>
<path d="M56.91 17.3946C56.91 15.9628 55.3113 14.1614 53.9273 14.1614C53.104 14.1614 52.6268 14.6504 52.6268 15.6288C52.6268 17.0605 54.2256 18.862 55.6097 18.862C56.4447 18.862 56.91 18.373 56.91 17.3946ZM52.0542 16.6309C52.0542 15.0084 53.1995 13.529 54.846 13.529C56.3492 13.529 57.4827 14.7698 57.4827 16.3924C57.4827 18.003 56.3372 19.4824 54.6909 19.4824C53.1876 19.4824 52.0542 18.2416 52.0542 16.6309Z" fill="white"/>
<path d="M62.3034 13.7668L62.1523 14.9803L61.8728 14.7212L61.8392 14.6896C61.6137 14.4808 61.2837 14.3409 60.9554 14.3409C60.7559 14.3409 60.592 14.3969 60.4541 14.4938C60.2676 14.6206 60.1278 14.8182 60.0122 15.0437V19.4829H58.832V13.899L60.0122 13.5933V14.8108C60.1241 14.5068 60.2731 14.2477 60.4541 14.0408C60.7392 13.7164 61.1065 13.528 61.5391 13.528C61.7908 13.528 62.0517 13.6009 62.2791 13.6959L62.3034 13.7668Z" fill="white"/>
<path d="M68.2563 15.2583V19.4829H67.0761V15.5098C67.0761 14.7455 66.5505 14.2683 65.8476 14.2683C65.6164 14.2683 65.402 14.3224 65.2062 14.4248C65.0161 14.5256 64.8428 14.6692 64.6899 14.8537V19.4829H63.5078V13.8992L64.6899 13.5933V14.7102C64.8259 14.4734 65.0011 14.2609 65.2062 14.0837C65.5958 13.7427 66.0954 13.528 66.6585 13.528C67.6373 13.528 68.2563 14.1731 68.2563 15.2583Z" fill="white"/>
<path d="M70.2382 16.4162L73.1493 15.772C72.9584 14.8652 72.1352 14.1015 71.2642 14.1015C70.5006 14.1015 70.095 14.6265 70.095 15.5572C70.095 15.8434 70.1426 16.1298 70.2382 16.4162ZM70.2839 16.5356C70.6895 17.6809 71.7533 18.6472 72.7676 18.6472C73.5669 18.6472 74.1754 18.0864 74.3782 17.2871H74.4139C74.247 18.5399 73.3282 19.4824 72.0636 19.4824C70.6079 19.4824 69.5342 18.2535 69.5342 16.5713C69.5342 14.7696 70.7511 13.529 72.0873 13.529C73.2446 13.529 74.1873 14.4236 74.1873 15.8316V15.9866L70.2839 16.5356Z" fill="white"/>
<path d="M79.0473 13.6474L79.0436 13.8638L79.0399 13.9904C78.9969 15.1259 78.6949 16.2389 78.3033 17.227L77.8987 18.2654C77.8148 17.9429 77.7068 17.6203 77.5874 17.3109L76.5789 14.7157L76.4781 14.4583L76.1576 13.6474H74.9326L75.0221 13.8748L75.1732 14.2552L77.1587 19.2554C77.3842 19.8276 77.5408 20.413 77.5408 20.7467C77.5408 21.3677 77.0635 21.7498 76.3944 21.7498C75.6188 21.7498 74.7723 21.2241 74.4629 20.4839H74.4143L74.1646 22.1431C74.5336 22.2866 74.9867 22.3464 75.3335 22.3464C77.0152 22.3464 78.1244 21.0806 78.1244 19.6617C78.1244 19.3391 78.0968 19.093 78.0018 18.6756L79.4668 14.7157L79.4686 14.7138L79.8844 13.6474H79.0473Z" fill="white"/>
<path d="M81.4299 14.7102C81.4299 14.2217 81.7879 13.8992 82.5038 13.8992C83.0836 13.8992 83.7473 14.1508 84.2209 14.4697L84.3421 14.5554L84.6329 14.7605L84.7708 13.791L84.7465 13.7444C84.3532 13.625 83.8517 13.528 83.3987 13.528C81.9072 13.528 80.8931 14.3036 80.8931 15.4372C80.8931 17.514 84.4483 16.6657 84.4483 18.2895C84.4483 18.8266 84.0661 19.1117 83.3874 19.1117C82.6754 19.1117 81.8868 18.7613 81.346 18.3698V18.368C81.3256 18.355 81.305 18.34 81.2846 18.3231L80.8911 18.025L80.7495 19.041L80.7625 19.0894C81.1559 19.2555 81.8365 19.4829 82.5635 19.4829C83.9598 19.4829 84.9852 18.7073 84.9852 17.5738C84.9852 15.4502 81.4299 16.2017 81.4299 14.7102Z" fill="white"/>
<path d="M102.314 19.4755V19.4829H102.4L102.314 19.4755Z" fill="white"/>
<path d="M15.8646 18.6234C15.6371 18.7427 15.3388 18.8379 15.0164 18.8379C14.2184 18.8379 13.1799 18.1219 13.1799 17.2754C13.1799 16.7628 13.5378 16.4515 14.1942 16.4515C14.731 16.4515 15.3873 16.7982 15.8646 17.1804V18.6234ZM15.3034 13.5282C14.265 13.5282 13.3459 14.1247 12.8574 14.8053L12.8928 14.8294C13.2638 14.4827 13.7765 14.1976 14.4086 14.1976C15.2679 14.1976 15.8646 14.7214 15.8646 15.6405V16.2967C15.4936 16.2483 15.0517 16.226 14.7776 16.226C13.4056 16.226 12.5591 16.8934 12.5591 17.9317C12.5591 18.9328 13.3347 19.4829 14.2184 19.4829C14.8728 19.4829 15.4936 19.1716 15.8646 18.7091V19.4829H17.0448V15.3907C17.0448 14.2329 16.4481 13.5282 15.3034 13.5282Z" fill="white"/>
<path d="M91.0135 18.6234C90.7861 18.7427 90.4877 18.8379 90.1653 18.8379C89.3674 18.8379 88.3288 18.1219 88.3288 17.2754C88.3288 16.7628 88.6868 16.4515 89.3431 16.4515C89.88 16.4515 90.5363 16.7982 91.0135 17.1804V18.6234ZM90.4524 13.5282C89.4138 13.5282 88.4948 14.1247 88.0063 14.8053L88.0417 14.8294C88.4127 14.4827 88.9255 14.1976 89.5575 14.1976C90.4168 14.1976 91.0135 14.7214 91.0135 15.6405V16.2967C90.6425 16.2483 90.2006 16.226 89.9266 16.226C88.5545 16.226 87.708 16.8934 87.708 17.9317C87.708 18.9328 88.4836 19.4829 89.3674 19.4829C90.0217 19.4829 90.6425 19.1716 91.0135 18.7091V19.4829H92.1937V15.3907C92.1937 14.2329 91.597 13.5282 90.4524 13.5282Z" fill="white"/>
<path d="M108.817 18.6234C108.59 18.7427 108.291 18.8379 107.969 18.8379C107.171 18.8379 106.133 18.1219 106.133 17.2754C106.133 16.7628 106.49 16.4515 107.147 16.4515C107.684 16.4515 108.34 16.7982 108.817 17.1804V18.6234ZM108.256 13.5282C107.218 13.5282 106.299 14.1247 105.81 14.8053L105.845 14.8294C106.216 14.4827 106.729 14.1976 107.361 14.1976C108.221 14.1976 108.817 14.7214 108.817 15.6405V16.2967C108.446 16.2483 108.004 16.226 107.73 16.226C106.358 16.226 105.512 16.8934 105.512 17.9317C105.512 18.9328 106.287 19.4829 107.171 19.4829C107.825 19.4829 108.446 19.1716 108.817 18.7091V19.4829H109.997V15.3907C109.997 14.2329 109.401 13.5282 108.256 13.5282Z" fill="white"/>
<path d="M97.0965 17.2754C96.8578 18.4927 96.1774 19.4829 95.0328 19.4829C94.1846 19.4829 93.6829 18.9328 93.6829 18.0976V13.9233H92.8608V13.6475H93.6829V12.2529L94.8296 11.5967H94.865V13.6475H97.0239L97.0369 13.6716V13.9233H94.9506L94.865 13.9159V17.8832C94.865 18.4202 95.139 18.767 95.6163 18.767C96.2724 18.767 96.8095 18.146 97.0593 17.2754H97.0965Z" fill="white"/>
<path d="M104.975 16.4868L104.613 19.4829H102.4L102.314 19.4753V19.4829H99.8198V10.6533H101.097V19.2069H102.851C103.947 18.9198 104.581 18.1312 104.879 16.4868H104.975Z" fill="white"/>
<path d="M94.9509 13.9233H94.8652V13.916L94.9509 13.9233Z" fill="white"/>
<path d="M81.3457 18.3679V18.3699L81.2842 18.3233C81.3048 18.34 81.3253 18.3549 81.3457 18.3679Z" fill="white"/>
</svg>
